<?xml version="1.0" encoding="utf-8"?>
<!-- Generator: Adobe Illustrator 19.0.1, SVG Export Plug-In . SVG Version: 6.00 Build 0)  -->
<svg version="1.1" id="Layer_1" xmlns="http://www.w3.org/2000/svg" xmlns:xlink="http://www.w3.org/1999/xlink" x="0px" y="0px"
	 viewBox="0 0 18 18" style="enable-background:new 0 0 18 18;" xml:space="preserve" width="30px" height="30px">
<path d="M18,16.9l-1,1l-4.8-4.7c-1.4,1.1-3,1.7-4.8,1.7c-1,0-2-0.2-2.9-0.6c-0.9-0.4-1.7-0.9-2.4-1.6c-0.7-0.7-1.2-1.5-1.6-2.4
	C0.2,9.5,0,8.5,0,7.5c0-1,0.2-2,0.6-2.9c0.4-0.9,0.9-1.7,1.6-2.4C2.8,1.6,3.6,1,4.5,0.6C5.5,0.2,6.4,0,7.4,0s2,0.2,2.9,0.6
	C11.2,1,12,1.6,12.7,2.3c0.7,0.7,1.2,1.5,1.6,2.4c0.4,0.9,0.6,1.9,0.6,2.9c0,0.9-0.1,1.7-0.4,2.5c-0.3,0.8-0.7,1.5-1.3,2.2L18,16.9z
	 M9.7,13c0.7-0.3,1.4-0.7,1.9-1.3c0.6-0.6,1-1.2,1.3-1.9c0.3-0.7,0.5-1.5,0.5-2.3c0-0.8-0.2-1.6-0.5-2.3c-0.3-0.7-0.7-1.4-1.3-1.9
	c-0.6-0.6-1.2-1-1.9-1.3C9,1.6,8.2,1.5,7.4,1.5c-0.8,0-1.6,0.2-2.3,0.5C4.4,2.3,3.7,2.7,3.2,3.2c-0.6,0.6-1,1.2-1.3,1.9
	C1.6,5.9,1.4,6.7,1.4,7.5c0,0.8,0.2,1.6,0.5,2.3c0.3,0.7,0.7,1.4,1.3,1.9c0.6,0.6,1.2,1,1.9,1.3c0.7,0.3,1.5,0.5,2.3,0.5
	C8.2,13.5,9,13.3,9.7,13z M10.8,7.1v0.9H4V7.1H10.8z"/>
</svg>
